<svg width="11" height="10" viewBox="0 0 11 10" fill="none" xmlns="http://www.w3.org/2000/svg">
<path d="M4.54653 0.385657C4.84603 -0.128553 5.58889 -0.128552 5.88839 0.385657L7.05332 2.38573C7.16304 2.57409 7.34688 2.70766 7.55993 2.7538L9.82209 3.24366C10.4037 3.3696 10.6332 4.0761 10.2367 4.51984L8.69455 6.24582C8.54931 6.40837 8.47909 6.62449 8.50105 6.84137L8.73421 9.14419C8.79415 9.73624 8.19316 10.1729 7.64862 9.93292L5.53056 8.99956C5.33108 8.91165 5.10384 8.91165 4.90436 8.99956L2.7863 9.93292C2.24175 10.1729 1.64076 9.73624 1.70071 9.14419L1.93387 6.84137C1.95583 6.62449 1.8856 6.40837 1.74036 6.24582L0.198167 4.51984C-0.198325 4.0761 0.0312313 3.3696 0.612825 3.24366L2.87499 2.7538C3.08804 2.70766 3.27188 2.57409 3.38159 2.38573L4.54653 0.385657Z" fill="#F8A80D"/>
</svg>
