<svg width="20" height="20" viewBox="0 0 20 20" fill="none" xmlns="http://www.w3.org/2000/svg">
<path d="M13.3334 18.9583H2.50008C1.70008 18.9583 1.04175 18.3 1.04175 17.5V6.66667C1.04175 2.98333 2.98341 1.04167 6.66675 1.04167H13.3334C17.0167 1.04167 18.9584 2.98333 18.9584 6.66667V13.3333C18.9584 17.0167 17.0167 18.9583 13.3334 18.9583ZM6.66675 2.29167C3.68341 2.29167 2.29175 3.68333 2.29175 6.66667V17.5C2.29175 17.6167 2.38341 17.7083 2.50008 17.7083H13.3334C16.3167 17.7083 17.7084 16.3167 17.7084 13.3333V6.66667C17.7084 3.68333 16.3167 2.29167 13.3334 2.29167H6.66675Z" fill="#F8A80D"/>
<path d="M14.1666 8.54167H5.83325C5.49159 8.54167 5.20825 8.25833 5.20825 7.91667C5.20825 7.575 5.49159 7.29167 5.83325 7.29167H14.1666C14.5083 7.29167 14.7916 7.575 14.7916 7.91667C14.7916 8.25833 14.5083 8.54167 14.1666 8.54167Z" fill="#F8A80D"/>
<path d="M11.6666 12.7083H5.83325C5.49159 12.7083 5.20825 12.425 5.20825 12.0833C5.20825 11.7417 5.49159 11.4583 5.83325 11.4583H11.6666C12.0083 11.4583 12.2916 11.7417 12.2916 12.0833C12.2916 12.425 12.0083 12.7083 11.6666 12.7083Z" fill="#F8A80D"/>
</svg>
