<svg width="29" height="29" viewBox="0 0 29 29" fill="none" xmlns="http://www.w3.org/2000/svg">
<path d="M19.1825 17.1523C19.0677 17.0375 18.9952 16.8804 18.9952 16.6992V10.005L12.301 10.005C11.9506 10.005 11.6606 9.71499 11.6606 9.36457C11.6606 9.01415 11.9506 8.72415 12.301 8.72415H19.6356C19.9861 8.72415 20.2761 9.01415 20.2761 9.36457L20.2761 16.6992C20.2761 17.0496 19.9861 17.3396 19.6356 17.3396C19.4604 17.3456 19.2973 17.2671 19.1825 17.1523Z" fill="#F8A80D"/>
<path d="M8.91162 20.0885C8.66391 19.8408 8.66391 19.43 8.91162 19.1823L19.0798 9.01415C19.3275 8.76645 19.7383 8.76645 19.986 9.01415C20.2337 9.26186 20.2337 9.6727 19.986 9.92041L9.81787 20.0885C9.57016 20.3363 9.15933 20.3363 8.91162 20.0885Z" fill="#F8A80D"/>
</svg>
