<svg width="35" height="32" viewBox="0 0 35 32" fill="none" xmlns="http://www.w3.org/2000/svg">
<g filter="url(#filter0_d_1_2834)">
<path d="M17.8313 21.8301C17.2956 21.8301 16.7058 21.6403 16.1159 21.2674L14.1362 20.0266C14.0006 19.9453 13.8447 19.8978 13.6887 19.8978H12.7124C11.0717 19.8978 10.1699 18.9961 10.1699 17.3553V14.6433C10.1699 13.0026 11.0717 12.1009 12.7124 12.1009H13.6819C13.8379 12.1009 13.9938 12.0534 14.1294 11.972L16.1092 10.7313C17.099 10.1143 18.0618 9.99908 18.8211 10.4194C19.5805 10.8398 19.9941 11.7144 19.9941 12.8873V19.1046C19.9941 20.2707 19.5737 21.1521 18.8211 21.5724C18.5228 21.7487 18.1838 21.8301 17.8313 21.8301ZM12.7124 13.1246C11.6412 13.1246 11.1869 13.5789 11.1869 14.6501V17.3621C11.1869 18.4333 11.6412 18.8876 12.7124 18.8876H13.6819C14.0345 18.8876 14.3735 18.9825 14.6718 19.1723L16.6516 20.4131C17.3092 20.8199 17.9194 20.9284 18.333 20.6978C18.7466 20.4673 18.9839 19.891 18.9839 19.1249V12.8941C18.9839 12.1212 18.7466 11.5449 18.333 11.3212C17.9194 11.0907 17.3024 11.1924 16.6516 11.6059L14.665 12.8399C14.3735 13.0297 14.0277 13.1246 13.6819 13.1246H12.7124Z" fill="white"/>
<path d="M24.2384 17.8435C24.1096 17.8435 23.9807 17.796 23.879 17.6943L21.1942 15.0095C20.9976 14.8128 20.9976 14.4874 21.1942 14.2908C21.3908 14.0942 21.7162 14.0942 21.9129 14.2908L24.5977 16.9756C24.7943 17.1723 24.7943 17.4977 24.5977 17.6943C24.496 17.7892 24.3672 17.8435 24.2384 17.8435Z" fill="white"/>
<path d="M21.5262 17.8706C21.3974 17.8706 21.2686 17.8231 21.1669 17.7214C20.9703 17.5248 20.9703 17.1994 21.1669 17.0028L23.8517 14.3179C24.0484 14.1213 24.3738 14.1213 24.5704 14.3179C24.767 14.5145 24.767 14.84 24.5704 15.0366L21.8856 17.7214C21.7839 17.8231 21.655 17.8706 21.5262 17.8706Z" fill="white"/>
</g>
<defs>
<filter id="filter0_d_1_2834" x="-0.847411" y="-2.29975" width="36.6117" height="36.6117" filterUnits="userSpaceOnUse" color-interpolation-filters="sRGB">
<feFlood flood-opacity="0" result="BackgroundImageFix"/>
<feColorMatrix in="SourceAlpha" type="matrix" values="0 0 0 0 0 0 0 0 0 0 0 0 0 0 0 0 0 0 127 0" result="hardAlpha"/>
<feOffset/>
<feGaussianBlur stdDeviation="5"/>
<feComposite in2="hardAlpha" operator="out"/>
<feColorMatrix type="matrix" values="0 0 0 0 0 0 0 0 0 0 0 0 0 0 0 0 0 0 0.5 0"/>
<feBlend mode="normal" in2="BackgroundImageFix" result="effect1_dropShadow_1_2834"/>
<feBlend mode="normal" in="SourceGraphic" in2="effect1_dropShadow_1_2834" result="shape"/>
</filter>
</defs>
</svg>
