<svg width="24" height="24" viewBox="0 0 24 24" fill="none" xmlns="http://www.w3.org/2000/svg">
<path d="M21.1456 12C21.6175 12 22.0038 11.6167 21.9635 11.1466C21.8199 9.46974 21.2548 7.85128 20.3147 6.4443C19.2159 4.79981 17.6541 3.51808 15.8268 2.7612C13.9996 2.00433 11.9889 1.80629 10.0491 2.19215C8.10929 2.578 6.32746 3.53041 4.92893 4.92893C3.53041 6.32746 2.578 8.10929 2.19215 10.0491C1.80629 11.9889 2.00433 13.9996 2.7612 15.8268C3.51808 17.6541 4.79981 19.2159 6.4443 20.3147C7.85128 21.2548 9.46974 21.8199 11.1466 21.9635C11.6167 22.0038 12 21.6175 12 21.1456C12 20.6737 11.6164 20.2957 11.147 20.2471C9.80869 20.1087 8.51954 19.6461 7.39371 18.8938C6.03024 17.9828 4.96755 16.6879 4.34001 15.1729C3.71248 13.6579 3.54829 11.9908 3.8682 10.3825C4.18812 8.77417 4.97777 7.29683 6.1373 6.1373C7.29683 4.97777 8.77417 4.18812 10.3825 3.8682C11.9908 3.54829 13.6579 3.71248 15.1729 4.34001C16.6879 4.96755 17.9828 6.03024 18.8938 7.39371C19.6461 8.51954 20.1087 9.80869 20.2471 11.147C20.2957 11.6164 20.6737 12 21.1456 12Z" fill="#F8A80D"/>
</svg>
