<svg width="16" height="16" viewBox="0 0 16 16" fill="none" xmlns="http://www.w3.org/2000/svg">
<g filter="url(#filter0_d_1_2779)">
<path d="M12.5 2.5H10.25C9.97386 2.5 9.75 2.72386 9.75 3V13C9.75 13.2761 9.97386 13.5 10.25 13.5H12.5C12.7761 13.5 13 13.2761 13 13V3C13 2.72386 12.7761 2.5 12.5 2.5Z" stroke="white" stroke-width="1.5" stroke-linecap="round" stroke-linejoin="round"/>
<path d="M5.75 2.5H3.5C3.22386 2.5 3 2.72386 3 3V13C3 13.2761 3.22386 13.5 3.5 13.5H5.75C6.02614 13.5 6.25 13.2761 6.25 13V3C6.25 2.72386 6.02614 2.5 5.75 2.5Z" stroke="white" stroke-width="1.5" stroke-linecap="round" stroke-linejoin="round"/>
</g>
<defs>
<filter id="filter0_d_1_2779" x="-10" y="-10" width="36" height="36" filterUnits="userSpaceOnUse" color-interpolation-filters="sRGB">
<feFlood flood-opacity="0" result="BackgroundImageFix"/>
<feColorMatrix in="SourceAlpha" type="matrix" values="0 0 0 0 0 0 0 0 0 0 0 0 0 0 0 0 0 0 127 0" result="hardAlpha"/>
<feOffset/>
<feGaussianBlur stdDeviation="5"/>
<feComposite in2="hardAlpha" operator="out"/>
<feColorMatrix type="matrix" values="0 0 0 0 0 0 0 0 0 0 0 0 0 0 0 0 0 0 0.5 0"/>
<feBlend mode="normal" in2="BackgroundImageFix" result="effect1_dropShadow_1_2779"/>
<feBlend mode="normal" in="SourceGraphic" in2="effect1_dropShadow_1_2779" result="shape"/>
</filter>
</defs>
</svg>
