<svg width="11" height="10" viewBox="0 0 11 10" fill="none" xmlns="http://www.w3.org/2000/svg">
<path d="M4.54653 0.385665C4.84603 -0.128545 5.58889 -0.128545 5.88839 0.385665L7.05332 2.38574C7.16304 2.5741 7.34688 2.70767 7.55993 2.7538L9.82209 3.24367C10.4037 3.36961 10.6332 4.07611 10.2367 4.51985L8.69455 6.24583C8.54931 6.40838 8.47909 6.6245 8.50105 6.84138L8.73421 9.1442C8.79415 9.73624 8.19316 10.1729 7.64862 9.93292L5.53056 8.99956C5.33108 8.91166 5.10384 8.91166 4.90436 8.99956L2.7863 9.93292C2.24175 10.1729 1.64076 9.73624 1.70071 9.1442L1.93387 6.84138C1.95583 6.6245 1.8856 6.40838 1.74036 6.24583L0.198167 4.51985C-0.198325 4.07611 0.0312313 3.36961 0.612825 3.24367L2.87499 2.7538C3.08804 2.70767 3.27188 2.5741 3.38159 2.38574L4.54653 0.385665Z" fill="#F8A80D"/>
</svg>
