<svg width="17" height="17" viewBox="0 0 17 17" fill="none" xmlns="http://www.w3.org/2000/svg">
<path d="M5.22382 11.776C5.15653 11.7087 5.11403 11.6166 5.11403 11.5103L5.11403 7.21079C5.11403 7.00537 5.28403 6.83538 5.48944 6.83538C5.69486 6.83538 5.86485 7.00537 5.86485 7.21079L5.86485 11.1349L9.78899 11.1349C9.9944 11.1349 10.1644 11.3049 10.1644 11.5103C10.1644 11.7158 9.9944 11.8858 9.78899 11.8858L5.48944 11.8858C5.38319 11.8858 5.29111 11.8433 5.22382 11.776Z" fill="#1A1A1A"/>
<path d="M5.28436 11.7158C5.13915 11.5705 5.13915 11.3297 5.28436 11.1845L11.2449 5.22394C11.3901 5.07873 11.631 5.07873 11.7762 5.22394C11.9214 5.36914 11.9214 5.60997 11.7762 5.75518L5.81561 11.7158C5.6704 11.861 5.42957 11.861 5.28436 11.7158Z" fill="#1A1A1A"/>
</svg>
