<svg width="16" height="16" viewBox="0 0 16 16" fill="none" xmlns="http://www.w3.org/2000/svg">
<path d="M10.6668 8.59998V11.4C10.6668 13.7333 9.7335 14.6666 7.40016 14.6666H4.60016C2.26683 14.6666 1.3335 13.7333 1.3335 11.4V8.59998C1.3335 6.26665 2.26683 5.33331 4.60016 5.33331H7.40016C9.7335 5.33331 10.6668 6.26665 10.6668 8.59998Z" fill="#F8A80D"/>
<path opacity="0.4" d="M11.3998 1.33331H8.59984C6.29984 1.33331 5.36651 2.24665 5.33984 4.49998H7.39984C10.1998 4.49998 11.4998 5.79998 11.4998 8.59998V10.66C13.7532 10.6333 14.6665 9.69998 14.6665 7.39998V4.59998C14.6665 2.26665 13.7332 1.33331 11.3998 1.33331Z" fill="#F8A80D"/>
</svg>
