<svg width="17" height="17" viewBox="0 0 17 17" fill="none" xmlns="http://www.w3.org/2000/svg">
<path d="M11.245 10.0547C11.1777 9.98739 11.1352 9.89531 11.1352 9.78906L11.1352 5.86493L7.21108 5.86493C7.00567 5.86493 6.83567 5.69493 6.83567 5.48951C6.83567 5.2841 7.00567 5.1141 7.21108 5.1141L11.5106 5.1141C11.716 5.1141 11.886 5.2841 11.886 5.48951L11.886 9.78906C11.886 9.99448 11.716 10.1645 11.5106 10.1645C11.4079 10.168 11.3123 10.122 11.245 10.0547Z" fill="#1A1A1A"/>
<path d="M5.2242 11.7759C5.07899 11.6307 5.07899 11.3899 5.2242 11.2447L11.1848 5.2841C11.33 5.13889 11.5708 5.13889 11.716 5.2841C11.8612 5.42931 11.8612 5.67014 11.716 5.81534L5.75544 11.7759C5.61024 11.9211 5.36941 11.9211 5.2242 11.7759Z" fill="#1A1A1A"/>
</svg>
