<svg width="20" height="20" viewBox="0 0 20 20" fill="none" xmlns="http://www.w3.org/2000/svg">
<path fill-rule="evenodd" clip-rule="evenodd" d="M3.51655 3.5164C3.76063 3.27232 4.15636 3.27232 4.40044 3.5164L16.9004 16.0164C17.1445 16.2605 17.1445 16.6562 16.9004 16.9003C16.6564 17.1444 16.2606 17.1444 16.0166 16.9003L3.51655 4.40029C3.27248 4.15621 3.27248 3.76048 3.51655 3.5164Z" fill="#999999"/>
<path fill-rule="evenodd" clip-rule="evenodd" d="M16.9004 3.5164C17.1445 3.76048 17.1445 4.15621 16.9004 4.40029L4.40044 16.9003C4.15636 17.1444 3.76063 17.1444 3.51655 16.9003C3.27248 16.6562 3.27248 16.2605 3.51655 16.0164L16.0166 3.5164C16.2606 3.27232 16.6564 3.27232 16.9004 3.5164Z" fill="#999999"/>
</svg>
